<svg width="960" height="540" viewBox="0 0 960 540" fill="none" xmlns="http://www.w3.org/2000/svg">
<rect width="960" height="540" fill="white"/>
<path fill-rule="evenodd" clip-rule="evenodd" d="M775.614 440C772.514 440 770 442.597 770 445.8V453.533C770 456.737 772.514 459.333 775.614 459.333H783.1C786.201 459.333 788.714 461.93 788.714 465.133L788.714 492.2C788.714 495.403 791.228 498 794.329 498H801.814C804.915 498 807.429 495.403 807.429 492.2V465.133C807.429 461.93 809.942 459.333 813.043 459.333H814.914C818.015 459.333 820.529 456.737 820.529 453.533V445.8C820.529 442.597 818.015 440 814.914 440H775.614ZM895.386 445.8C895.386 442.597 892.872 440 889.771 440H856.086C852.985 440 850.471 442.597 850.471 445.8V492.2C850.471 495.403 852.985 498 856.086 498H895.386C898.486 498 901 495.403 901 492.2V484.467C901 481.263 898.486 478.667 895.386 478.667H874.8C871.699 478.667 869.186 476.07 869.186 472.867V465.133C869.186 461.93 871.699 459.333 874.8 459.333H889.771C892.872 459.333 895.386 456.737 895.386 453.533V445.8ZM844.857 445.8C844.857 442.597 842.344 440 839.243 440H831.757C828.656 440 826.143 442.597 826.143 445.8V492.2C826.143 495.403 828.656 498 831.757 498H839.243C842.344 498 844.857 495.403 844.857 492.2V445.8Z" fill="#FF002E"/>
</svg>
