<svg width="960" height="540" viewBox="0 0 960 540" fill="none" xmlns="http://www.w3.org/2000/svg">
<rect width="960" height="540" fill="#00000000"/>
<path fill-rule="evenodd" clip-rule="evenodd" d="M885.7 497C884.209 497 883 498.254 883 499.8V503.533C883 505.08 884.209 506.333 885.7 506.333H889.3C890.791 506.333 892 507.587 892 509.133L892 522.2C892 523.746 893.209 525 894.7 525H898.3C899.791 525 901 523.746 901 522.2V509.133C901 507.587 902.209 506.333 903.7 506.333H904.6C906.091 506.333 907.3 505.08 907.3 503.533V499.8C907.3 498.254 906.091 497 904.6 497H885.7ZM943.3 499.8C943.3 498.254 942.091 497 940.6 497H924.4C922.909 497 921.7 498.254 921.7 499.8V522.2C921.7 523.746 922.909 525 924.4 525H943.3C944.791 525 946 523.746 946 522.2V518.467C946 516.92 944.791 515.667 943.3 515.667H933.4C931.909 515.667 930.7 514.413 930.7 512.867V509.133C930.7 507.587 931.909 506.333 933.4 506.333H940.6C942.091 506.333 943.3 505.08 943.3 503.533V499.8ZM919 499.8C919 498.254 917.791 497 916.3 497H912.7C911.209 497 910 498.254 910 499.8V522.2C910 523.746 911.209 525 912.7 525H916.3C917.791 525 919 523.746 919 522.2V499.8Z" fill="#FF002E"/>
</svg>
