<svg width="960" height="540" viewBox="0 0 960 540" fill="none" xmlns="http://www.w3.org/2000/svg">
<rect width="960" height="540" fill="white"/>
<path fill-rule="evenodd" clip-rule="evenodd" d="M80 32.3529C80 39.1753 74.4694 44.7059 67.6471 44.7059L57.0588 44.7059C50.2365 44.7059 44.7059 50.2365 44.7059 57.0588L44.7059 67.6471C44.7059 74.4694 39.1753 80 32.3529 80C25.5306 80 20 74.4694 20 67.6471L20 57.0588C20 36.5918 36.5918 20 57.0588 20L67.6471 20C74.4694 20 80 25.5306 80 32.3529Z" fill="#FF002E"/>
<path fill-rule="evenodd" clip-rule="evenodd" d="M734 425.647C734 418.825 739.531 413.294 746.353 413.294L756.941 413.294C763.764 413.294 769.294 407.764 769.294 400.941L769.294 390.353C769.294 383.531 774.825 378 781.647 378C788.469 378 794 383.531 794 390.353L794 400.941C794 421.408 777.408 438 756.941 438L746.353 438C739.531 438 734 432.469 734 425.647Z" fill="#FF002E"/>
<path fill-rule="evenodd" clip-rule="evenodd" d="M781.647 80C774.825 80 769.294 74.4694 769.294 67.6471L769.294 57.0588C769.294 50.2365 763.764 44.7059 756.941 44.7059L746.353 44.7059C739.531 44.7059 734 39.1753 734 32.3529C734 25.5306 739.531 20 746.353 20L756.941 20C777.408 20 794 36.5918 794 57.0588L794 67.6471C794 74.4694 788.469 80 781.647 80Z" fill="#FF002E"/>
<path fill-rule="evenodd" clip-rule="evenodd" d="M32.3529 378C39.1753 378 44.7059 383.531 44.7059 390.353L44.7059 400.941C44.7059 407.764 50.2365 413.294 57.0588 413.294L67.6471 413.294C74.4694 413.294 80 418.825 80 425.647C80 432.469 74.4694 438 67.6471 438L57.0588 438C36.5918 438 20 421.408 20 400.941L20 390.353C20 383.531 25.5306 378 32.3529 378Z" fill="#FF002E"/>
<path fill-rule="evenodd" clip-rule="evenodd" d="M816.529 464C813.475 464 811 466.507 811 469.6V477.067C811 480.159 813.475 482.667 816.529 482.667H823.9C826.953 482.667 829.429 485.174 829.429 488.267L829.429 514.4C829.429 517.493 831.904 520 834.957 520H842.329C845.382 520 847.857 517.493 847.857 514.4V488.267C847.857 485.174 850.332 482.667 853.386 482.667H855.229C858.282 482.667 860.757 480.159 860.757 477.067V469.6C860.757 466.507 858.282 464 855.229 464H816.529ZM934.471 469.6C934.471 466.507 931.996 464 928.943 464H895.771C892.718 464 890.243 466.507 890.243 469.6V514.4C890.243 517.493 892.718 520 895.771 520L934.471 520C937.525 520 940 517.493 940 514.4V506.933C940 503.841 937.525 501.333 934.471 501.333H914.2C911.147 501.333 908.671 498.826 908.671 495.733V488.267C908.671 485.174 911.147 482.667 914.2 482.667H928.943C931.996 482.667 934.471 480.159 934.471 477.067V469.6ZM884.714 469.6C884.714 466.507 882.239 464 879.186 464H871.814C868.761 464 866.286 466.507 866.286 469.6V514.4C866.286 517.493 868.761 520 871.814 520H879.186C882.239 520 884.714 517.493 884.714 514.4V469.6Z" fill="#FF002E"/>
<path d="M280.12 492.275V489.125H284.075C284.658 489.125 285.137 489.043 285.51 488.88C285.883 488.717 286.163 488.483 286.35 488.18C286.537 487.877 286.63 487.515 286.63 487.095C286.63 486.465 286.42 486.01 286 485.73C285.603 485.427 284.962 485.275 284.075 485.275H282.15V498.225H284.775C285.358 498.225 285.895 498.178 286.385 498.085C286.875 497.992 287.272 497.793 287.575 497.49C287.878 497.187 288.03 496.708 288.03 496.055C288.03 495.658 287.937 495.343 287.75 495.11C287.587 494.853 287.353 494.667 287.05 494.55C286.747 494.41 286.397 494.317 286 494.27C285.627 494.223 285.218 494.2 284.775 494.2H280.12V490H285.825C287.015 490 288.205 490.14 289.395 490.42C290.608 490.677 291.717 491.097 292.72 491.68C293.723 492.263 294.528 493.022 295.135 493.955C295.765 494.865 296.08 495.973 296.08 497.28C296.08 498.913 295.672 500.22 294.855 501.2C294.062 502.18 292.895 502.892 291.355 503.335C289.838 503.778 287.995 504 285.825 504H274.45V479.5H285.125C286.945 479.5 288.567 479.733 289.99 480.2C291.437 480.667 292.58 481.367 293.42 482.3C294.26 483.233 294.68 484.4 294.68 485.8C294.68 487.177 294.26 488.355 293.42 489.335C292.58 490.292 291.437 491.027 289.99 491.54C288.567 492.03 286.945 492.275 285.125 492.275H280.12ZM307.544 504.35C305.444 504.35 303.636 504.012 302.119 503.335C300.626 502.658 299.471 501.702 298.654 500.465C297.861 499.205 297.464 497.7 297.464 495.95C297.464 494.177 297.849 492.672 298.619 491.435C299.389 490.175 300.497 489.218 301.944 488.565C303.391 487.888 305.141 487.55 307.194 487.55C309.224 487.55 310.927 487.865 312.304 488.495C313.704 489.102 314.754 490.012 315.454 491.225C316.177 492.415 316.539 493.885 316.539 495.635C316.539 495.938 316.539 496.242 316.539 496.545C316.539 496.825 316.516 497.093 316.469 497.35H301.174V494.06H310.134L308.804 495.67C308.944 495.46 309.061 495.238 309.154 495.005C309.247 494.772 309.294 494.573 309.294 494.41C309.294 493.85 309.201 493.372 309.014 492.975C308.827 492.578 308.559 492.275 308.209 492.065C307.882 491.855 307.486 491.75 307.019 491.75C306.389 491.75 305.876 491.902 305.479 492.205C305.082 492.485 304.791 492.94 304.604 493.57C304.417 494.177 304.324 494.97 304.324 495.95C304.301 496.767 304.394 497.467 304.604 498.05C304.837 498.61 305.164 499.042 305.584 499.345C306.027 499.648 306.564 499.8 307.194 499.8C308.034 499.8 308.734 499.672 309.294 499.415C309.854 499.135 310.274 498.738 310.554 498.225L316.784 499.205C315.921 500.932 314.719 502.227 313.179 503.09C311.662 503.93 309.784 504.35 307.544 504.35ZM325.092 487.9V504H318.442V487.9H325.092ZM329.607 494.83C329.397 494.55 329.129 494.317 328.802 494.13C328.475 493.943 328.079 493.85 327.612 493.85C327.215 493.85 326.819 493.967 326.422 494.2C326.025 494.433 325.699 494.795 325.442 495.285C325.209 495.775 325.092 496.405 325.092 497.175L323.832 494.2C323.832 492.917 324.1 491.773 324.637 490.77C325.174 489.767 325.874 488.973 326.737 488.39C327.624 487.783 328.557 487.48 329.537 487.48C330.12 487.48 330.68 487.632 331.217 487.935C331.777 488.215 332.162 488.553 332.372 488.95L329.607 494.83ZM333.251 476.7H340.076V504H333.251V476.7ZM341.999 482.23C341.999 481.203 342.36 480.375 343.084 479.745C343.83 479.115 344.729 478.8 345.779 478.8C346.829 478.8 347.715 479.115 348.439 479.745C349.185 480.375 349.559 481.203 349.559 482.23C349.559 483.257 349.185 484.085 348.439 484.715C347.715 485.345 346.829 485.66 345.779 485.66C344.729 485.66 343.83 485.345 343.084 484.715C342.36 484.085 341.999 483.257 341.999 482.23ZM342.489 487.9H349.034V504H342.489V487.9ZM361.988 494.2C361.988 493.477 361.883 492.917 361.673 492.52C361.463 492.1 361.008 491.89 360.308 491.89C359.912 491.89 359.562 491.972 359.258 492.135C358.955 492.298 358.722 492.555 358.558 492.905C358.395 493.232 358.313 493.663 358.313 494.2V504H351.488V487.9H358.313V490.245C358.757 489.428 359.375 488.775 360.168 488.285C360.985 487.772 362.023 487.515 363.283 487.515C365.477 487.515 367.005 488.04 367.868 489.09C368.732 490.117 369.163 491.587 369.163 493.5V504H361.988V494.2ZM373.485 500.15L380.31 501.34L375.585 510.09L370.405 509.215L373.485 500.15ZM404.978 495.6V490H417.998C418.185 492.1 418.021 494.06 417.508 495.88C417.018 497.7 416.213 499.298 415.093 500.675C413.973 502.052 412.561 503.125 410.858 503.895C409.155 504.665 407.195 505.05 404.978 505.05C402.925 505.05 401.046 504.735 399.343 504.105C397.64 503.475 396.158 502.577 394.898 501.41C393.661 500.243 392.693 498.843 391.993 497.21C391.316 495.577 390.978 493.757 390.978 491.75C390.978 489.743 391.34 487.947 392.063 486.36C392.786 484.75 393.79 483.385 395.073 482.265C396.38 481.145 397.896 480.293 399.623 479.71C401.373 479.103 403.275 478.8 405.328 478.8C407.195 478.8 408.84 479.08 410.263 479.64C411.71 480.2 412.97 480.947 414.043 481.88C415.14 482.79 416.096 483.817 416.913 484.96L409.738 488.18C409.318 487.41 408.77 486.733 408.093 486.15C407.416 485.567 406.495 485.275 405.328 485.275C404.185 485.275 403.135 485.52 402.178 486.01C401.221 486.477 400.451 487.188 399.868 488.145C399.308 489.102 399.028 490.303 399.028 491.75C399.028 493.173 399.285 494.398 399.798 495.425C400.335 496.452 401.07 497.233 402.003 497.77C402.96 498.307 404.068 498.575 405.328 498.575C406.028 498.575 406.658 498.505 407.218 498.365C407.778 498.225 408.256 498.027 408.653 497.77C409.073 497.513 409.435 497.198 409.738 496.825C410.041 496.452 410.298 496.043 410.508 495.6H404.978ZM429.334 504.35C427.234 504.35 425.426 504.012 423.909 503.335C422.416 502.658 421.261 501.702 420.444 500.465C419.651 499.205 419.254 497.7 419.254 495.95C419.254 494.177 419.639 492.672 420.409 491.435C421.179 490.175 422.288 489.218 423.734 488.565C425.181 487.888 426.931 487.55 428.984 487.55C431.014 487.55 432.718 487.865 434.094 488.495C435.494 489.102 436.544 490.012 437.244 491.225C437.968 492.415 438.329 493.885 438.329 495.635C438.329 495.938 438.329 496.242 438.329 496.545C438.329 496.825 438.306 497.093 438.259 497.35H422.964V494.06H431.924L430.594 495.67C430.734 495.46 430.851 495.238 430.944 495.005C431.038 494.772 431.084 494.573 431.084 494.41C431.084 493.85 430.991 493.372 430.804 492.975C430.618 492.578 430.349 492.275 429.999 492.065C429.673 491.855 429.276 491.75 428.809 491.75C428.179 491.75 427.666 491.902 427.269 492.205C426.873 492.485 426.581 492.94 426.394 493.57C426.208 494.177 426.114 494.97 426.114 495.95C426.091 496.767 426.184 497.467 426.394 498.05C426.628 498.61 426.954 499.042 427.374 499.345C427.818 499.648 428.354 499.8 428.984 499.8C429.824 499.8 430.524 499.672 431.084 499.415C431.644 499.135 432.064 498.738 432.344 498.225L438.574 499.205C437.711 500.932 436.509 502.227 434.969 503.09C433.453 503.93 431.574 504.35 429.334 504.35ZM446.882 487.9V504H440.232V487.9H446.882ZM451.397 494.83C451.187 494.55 450.919 494.317 450.592 494.13C450.266 493.943 449.869 493.85 449.402 493.85C449.006 493.85 448.609 493.967 448.212 494.2C447.816 494.433 447.489 494.795 447.232 495.285C446.999 495.775 446.882 496.405 446.882 497.175L445.622 494.2C445.622 492.917 445.891 491.773 446.427 490.77C446.964 489.767 447.664 488.973 448.527 488.39C449.414 487.783 450.347 487.48 451.327 487.48C451.911 487.48 452.471 487.632 453.007 487.935C453.567 488.215 453.952 488.553 454.162 488.95L451.397 494.83ZM481.117 493.5V504H474.292V494.2C474.292 493.477 474.187 492.917 473.977 492.52C473.767 492.1 473.393 491.89 472.857 491.89C472.577 491.89 472.32 491.972 472.087 492.135C471.853 492.298 471.667 492.555 471.527 492.905C471.387 493.232 471.317 493.663 471.317 494.2V504H464.492V494.2C464.492 493.477 464.387 492.917 464.177 492.52C463.967 492.1 463.593 491.89 463.057 491.89C462.777 491.89 462.52 491.972 462.287 492.135C462.053 492.298 461.867 492.555 461.727 492.905C461.587 493.232 461.517 493.663 461.517 494.2V504H455.042V487.9H461.517V490.315C461.96 489.475 462.578 488.798 463.372 488.285C464.165 487.772 465.145 487.515 466.312 487.515C467.642 487.515 468.657 487.725 469.357 488.145C470.08 488.542 470.593 489.148 470.897 489.965C471.503 489.218 472.25 488.623 473.137 488.18C474.023 487.737 475.015 487.515 476.112 487.515C477.465 487.515 478.492 487.748 479.192 488.215C479.915 488.682 480.417 489.358 480.697 490.245C480.977 491.132 481.117 492.217 481.117 493.5ZM489.367 498.925C489.367 499.228 489.437 499.485 489.577 499.695C489.741 499.882 489.939 500.033 490.172 500.15C490.429 500.243 490.697 500.29 490.977 500.29C491.421 500.29 491.841 500.197 492.237 500.01C492.657 499.8 492.996 499.485 493.252 499.065C493.532 498.622 493.672 498.05 493.672 497.35L494.232 499.45C494.232 500.477 493.976 501.363 493.462 502.11C492.949 502.833 492.249 503.393 491.362 503.79C490.476 504.163 489.472 504.35 488.352 504.35C487.302 504.35 486.334 504.163 485.447 503.79C484.561 503.417 483.849 502.857 483.312 502.11C482.776 501.34 482.507 500.407 482.507 499.31C482.507 497.77 483.044 496.568 484.117 495.705C485.214 494.818 486.789 494.375 488.842 494.375C489.682 494.375 490.487 494.445 491.257 494.585C492.051 494.725 492.751 494.923 493.357 495.18C493.987 495.413 494.477 495.717 494.827 496.09V498.855C494.431 498.505 493.894 498.225 493.217 498.015C492.564 497.805 491.887 497.7 491.187 497.7C490.744 497.7 490.382 497.747 490.102 497.84C489.846 497.933 489.659 498.073 489.542 498.26C489.426 498.423 489.367 498.645 489.367 498.925ZM485.832 493.57L483.767 489.16C484.887 488.717 486.147 488.308 487.547 487.935C488.971 487.562 490.452 487.375 491.992 487.375C493.509 487.375 494.886 487.585 496.122 488.005C497.359 488.425 498.339 489.043 499.062 489.86C499.786 490.653 500.147 491.633 500.147 492.8V504H493.672V494.48C493.672 494.177 493.626 493.897 493.532 493.64C493.439 493.383 493.287 493.162 493.077 492.975C492.867 492.765 492.587 492.613 492.237 492.52C491.887 492.403 491.467 492.345 490.977 492.345C490.324 492.345 489.636 492.427 488.912 492.59C488.189 492.73 487.547 492.905 486.987 493.115C486.427 493.302 486.042 493.453 485.832 493.57ZM513.105 494.2C513.105 493.477 513 492.917 512.79 492.52C512.58 492.1 512.125 491.89 511.425 491.89C511.028 491.89 510.678 491.972 510.375 492.135C510.072 492.298 509.838 492.555 509.675 492.905C509.512 493.232 509.43 493.663 509.43 494.2V504H502.605V487.9H509.43V490.245C509.873 489.428 510.492 488.775 511.285 488.285C512.102 487.772 513.14 487.515 514.4 487.515C516.593 487.515 518.122 488.04 518.985 489.09C519.848 490.117 520.28 491.587 520.28 493.5V504H513.105V494.2ZM541.3 487.9L530.8 511.7H524.15L527.755 503.3L520.3 487.9H527.65L532.9 501.025H529.225L534.475 487.9H541.3Z" fill="#FF002E"/>
</svg>
